<?xml version="1.0" encoding="utf-8"?>
<!-- Generator: Adobe Illustrator 16.0.0, SVG Export Plug-In . SVG Version: 6.00 Build 0)  -->
<!DOCTYPE svg PUBLIC "-//W3C//DTD SVG 1.1//EN" "http://www.w3.org/Graphics/SVG/1.1/DTD/svg11.dtd">
<svg version="1.1" id="Layer_1" xmlns="http://www.w3.org/2000/svg" xmlns:xlink="http://www.w3.org/1999/xlink" x="0px" y="0px"
	 width="280.487px" height="273.333px" viewBox="0 0 280.487 273.333" enable-background="new 0 0 280.487 273.333"
	 xml:space="preserve">
<g>
	<path fill="#BFB5BF" d="M205.831,209.985l-52.085-30.072l-3.293,1.902l3.299-1.904l-10.025-5.789l-44.49,25.688l10.025,5.787
		l52.084,30.072l14.656,6.391l4.793-2.766l-11.07-8.463l-12.047-6.955l27.73-16.008l12.045,6.953l14.656,6.393l4.793-2.768
		L205.831,209.985z M134.287,210.372l-16.646-9.611l27.728-16.01l16.647,9.611L134.287,210.372z"/>
	<path fill="#BFB5BF" d="M110.021,162.241c-1.093-0.631-2.269-1.178-3.487-1.678c-1.307-1.959-3.311-3.799-6.046-5.377
		c-10.524-6.079-27.643-6.047-38.233,0.068c-10.591,6.115-10.645,15.998-0.12,22.074c1.092,0.631,2.27,1.178,3.487,1.678
		c1.308,1.959,3.312,3.799,6.046,5.377c10.526,6.076,27.644,6.047,38.233-0.068C120.491,178.2,120.545,168.317,110.021,162.241z"/>
	<g>
		<g>
			<path fill="#FEBFBF" d="M105.494,81.474c0,0-1.465,2.601-4.313,2.684h-0.146c-0.433,0.021-0.805,0-1.114-0.042
				c-1.692-0.164-1.919-0.866-2.188-1.733c-0.33-1.032-5.676-23.426-1.279-24.746c0.082,0,2.332,0.02,3.303,2.146
				c0.619,1.342,1.856,6.419,2.826,10.713c0.578,2.621,1.053,4.974,1.239,5.985c0.371,2.125,1.196,4.004,1.507,4.705
				c0.021-0.021,0.021-0.021,0.021,0C105.434,81.372,105.494,81.474,105.494,81.474z"/>
			
				<linearGradient id="SVGID_1_" gradientUnits="userSpaceOnUse" x1="-3197.6479" y1="78.7998" x2="-3179.9048" y2="101.2609" gradientTransform="matrix(1 0 0 1 3301.832 0)">
				<stop  offset="0.1224" style="stop-color:#FCA4B5"/>
				<stop  offset="0.9896" style="stop-color:#FFADB7"/>
			</linearGradient>
			<path fill="url(#SVGID_1_)" d="M109.623,97.387c-0.082,0.187-0.104,0.475-0.063,0.764c-0.02-0.021-0.02-0.021-0.02-0.021
				c-0.021-0.082-0.559-1.589-3.571-4.107c-2.993-2.518-5.655-6.79-6.026-8.256l-0.021-1.651c-1.692-0.164-1.919-0.866-2.188-1.733
				c-0.33-1.032-5.676-23.426-1.279-24.746c0.082,0,2.332,0.02,3.303,2.146c0.619,1.342,1.856,6.419,2.826,10.713
				c-0.02,0.02-0.02,0.02-0.02,0.02c-0.145,0.537-2.663,1.404-2.663,1.404s0.476,7.905,0.454,8.482
				c-0.041,0.578,1.259,1.94,1.259,1.94s0,0-0.021,0.021c-0.124,0.145-0.66,0.784-0.558,1.796c0,0.247,0.062,0.536,0.187,0.846
				c0.639,1.651,4.541,7.307,5.799,9.164c1.26,1.879,2.85,2.766,2.85,2.766S109.871,96.933,109.623,97.387z"/>
			<path fill="#FFDC6E" d="M102.59,69.963c0,0-1.895,1.294-3.521,0.729c-1.563-0.543-5.633-14.739-5.633-14.739
				s0.34-0.706,2.768-0.11c2.428,0.596,3.556,2.927,3.902,4.117C100.453,61.149,102.59,69.963,102.59,69.963z"/>
		</g>
		<g>
			<g>
				<path fill="#554D4E" d="M99.172,167.706c0,0,3.276,1.504,3.916,2.047c0.639,0.543,4.705,3.947,4.977,4.475
					s1.545,1.588,1.561,2.758s-1.414,2.271-2.618,2.24s-5.032-1.26-6.54-2.777c-1.506-1.516-2.417-2.588-2.691-2.67
					c-0.275-0.084-0.3,0.076-0.984,0.191c-0.684,0.115-3.452-1.162-3.787-1.914c-0.336-0.75-1.039-3.836-0.615-4.715
					C92.813,166.461,99.172,167.706,99.172,167.706z"/>
				<path fill="#FEBFBF" d="M99.619,166.741c0,0,3.052,3.105,3.328,3.814c0.275,0.709-1.096,1.383-3.008,1.473
					c-1.914,0.088-4.283-1.916-4.283-1.916s-2.049-2.93-1.148-4.436C95.406,164.168,99.619,166.741,99.619,166.741z"/>
				<path fill="#7282B5" d="M100.396,105.068c0,0,0.653-0.23,1.92,10.773c1.163,10.108,1.066,17.43,0.831,20.77
					c-0.234,3.338-2.067,29.542-2.087,30.866c-0.02,1.322-2.9,2.07-4.658,1.949c-1.758-0.119-3.33-1.709-3.377-2.604
					s-2.033-23.127-0.614-30.558c0.413-2.162-5.53-17.241-5.53-17.241s-1.207-11.253-0.223-13.646
					C87.645,102.985,100.396,105.068,100.396,105.068z"/>
				<path fill="#E8D0C8" d="M96.477,169.411h-0.063c-1.774-0.104-3.344-1.691-3.385-2.6c-0.041-0.889-2.043-23.118-0.619-30.547
					c0.413-2.168-5.524-17.252-5.524-17.252s-0.041-0.475-0.124-1.238l5.771-1.222c0,0-1.155,2.064,0.083,6.109
					c1.259,4.025,1.362,12.322,1.528,13.52c0.164,1.198-1.383,1.651-0.949,10.588C93.545,154.077,93.381,165.161,96.477,169.411z"/>
				<path fill="#554D4E" d="M72.7,160.247c0,0,2.203,3.172,2.474,3.699c0.271,0.527,3.379,5.656,3.494,6.34
					s-0.045,1.275-0.535,1.768c-0.49,0.49-2.38,1.174-3.69,0.822c-1.31-0.352-3.348-1.467-4.424-2.588
					c-1.074-1.121-2.332-4.242-2.332-4.242s-1.314-1.473-1.672-2.193s-1.246-1.666-1.342-2.691
					c-0.095-1.025-0.207-1.684,0.755-2.473C66.389,157.901,72.7,160.247,72.7,160.247z"/>
				<path fill="#FEBFBF" d="M72.795,159.487c0,0,1.329,3.486,1.36,4.133s-1.529,1.277-3.011,1.088s-2.07-1.563-2.515-1.979
					c-0.445-0.416-2.352-3.574-1.895-4.564C67.193,157.176,72.795,159.487,72.795,159.487z"/>
				<path fill="#7282B5" d="M92.856,106.63c0,0,0.394,4.796,0.499,6.654c0.105,1.857,0.184,4.44,0.184,4.44l-3.453,4.439
					c0,0-2.129,1.943-5.389,18.074c-2.636,5.16-11.013,20.153-11.013,20.153s-2.396,2.479-5.211,1.123
					c-2.458-1.182-3.359-3.148-3.342-3.533c0.049-1.082,5.445-14.508,6.162-16.436s3.471-6.648,3.471-6.648s0.014-7.166-0.201-9.558
					c-0.393-4.381-4.201-15.262-2.9-17.428C72.966,105.747,92.856,106.63,92.856,106.63z"/>
				<g>
					<path fill="#A0ABCD" d="M66.448,159.487l-0.496-0.146c4.098-14.038,7.205-18.098,9.063-20.524
						c0.616-0.809,1.064-1.391,1.335-2.089c2.343-6.1-0.66-17.156-1.286-19.311c-1.462-5.032-0.809-8.371-0.778-8.51l0.504,0.103
						c-0.006,0.033-0.652,3.364,0.77,8.264c0.635,2.183,3.677,13.386,1.271,19.64c-0.294,0.767-0.761,1.375-1.405,2.216
						C73.589,141.527,70.517,145.539,66.448,159.487z"/>
				</g>
				<path fill="#E8D0C8" d="M75.905,135.978c-2.642,2.786-5.098,9.495-6.976,14.137c-1.548,3.84-2.827,6.688-2.952,9.454
					c-0.599-0.742-0.866-1.383-0.846-1.588c0.041-1.094,5.449-14.51,6.171-16.452c0.702-1.92,3.468-6.646,3.468-6.646
					s0.02-7.161-0.207-9.556c-0.393-4.376-4.189-15.252-2.889-17.42c0.186-0.309,0.805-0.557,1.754-0.743
					c0,0.063,0.021,0.124,0.021,0.187c0,0-0.95,0.453,0.494,6.707C75.39,120.312,77.246,130.57,75.905,135.978z"/>
				<path fill="#FDD249" d="M70.483,107.538c0,0,3.295,3.553,8.221,4.046c10.325,1.031,21.258-3.886,22.519-5.488
					c0,0-1.23-10.616-1.229-15.549c0-4.933-0.321-12.59,0.017-17.58c0.338-4.989,0.5-10.809-2.844-15.864
					c-2.001-3.026-8.567-0.271-10.551-0.491c-1.982-0.221-4.688-1.848-7.499,0.434c-2.811,2.281-8.264,4.391-9.425,7.616
					c-1.354,3.765-1.072,8.703,1.479,19.78C74.007,96.753,70.483,107.538,70.483,107.538z"/>
				<path fill="#DEDEDE" d="M97.35,104.228c0,0,2.869,2.677,1.609,2.224l-2.909-0.64c-1.259-0.496-3.193,0.818-12.921-2.488
					c-2.977-1.012-8.354-4.123-8.354-4.123s-1.738,7.015-2.15,10.09c-1.362-0.929-2.146-1.754-2.146-1.754
					s3.674-10.815,0.701-23.096c-0.33-1.383-0.64-2.663-0.887-3.839c2.353-4.376,4.742-10.056,7.715-10.097
					c0,0,2.36,10.396,1.328,16.506s-2.273,6.284-2.273,6.284l11.001,6.327L97.35,104.228z"/>
				<path fill="#FFADB7" d="M91.336,57.636c-0.021,2.001,0.496,2.848,0.021,3.59c-0.414,0.599-3.943,1.404-5.449,0.785
					c-0.517-0.207-0.991-0.434-1.404-0.64c0,0-0.021-0.021-0.041-0.021c-2.91-1.486-3.529-2.765-3.859-3.364
					c-0.371-0.682,0.021-1.26,0.021-1.26s2.188-2.889,1.96-5.346c-0.062-0.639-0.124-1.94-0.165-3.219
					c-0.063-1.63-0.124-3.199-0.124-3.199s1.342-2.621,2.56-2.477c1.217,0.165,6.977,6.295,6.977,6.295s-0.166,2.477-0.311,4.892
					c-0.082,1.362-0.145,2.704-0.164,3.57C91.336,57.388,91.336,57.512,91.336,57.636z"/>
				
					<linearGradient id="SVGID_2_" gradientUnits="userSpaceOnUse" x1="-3215.9116" y1="54.0679" x2="-3210.2949" y2="61.1779" gradientTransform="matrix(1 0 0 1 3301.832 0)">
					<stop  offset="0.1224" style="stop-color:#FCA4B5"/>
					<stop  offset="0.9896" style="stop-color:#FFADB7"/>
				</linearGradient>
				<path fill="url(#SVGID_2_)" d="M91.521,53.673c-0.082,1.362-0.145,2.704-0.164,3.57c-0.414,0.021-1.033-0.103-1.879-0.433
					c-3.756-1.486-4.705-1.238-5.883-0.392c-1.053,0.784-0.682,3.467,0.867,4.933c-2.91-1.486-3.529-2.765-3.859-3.364
					c-0.371-0.682,0.021-1.26,0.021-1.26s2.188-2.889,1.96-5.346c-0.062-0.639-0.124-1.94-0.165-3.219
					c4.355-0.97,7.079-0.393,7.079-0.393L91.521,53.673z"/>
				<path fill="#FEBFBF" d="M83.576,44.792c0,0,0.281,6.283,0.896,7.612s5.049,4.748,9.326,4.156
					c1.146-0.611,2.912-3.775,3.113-6.57c0.201-2.796-0.024-3.826,0.037-4.071c0.064-0.245,0.922-1.953,0.789-2.738
					s-0.358-5.202-1.883-7.133c-1.525-1.931-5.738-3.121-9.519-1.596C82.557,35.977,83.576,44.792,83.576,44.792z"/>
				<path fill="#754554" d="M84.916,47.015c0,0,0.362-2.484-1.197-2.924c-1.559-0.44-1.446,2.311-1.446,2.311l0.372,4.353
					l-0.053,0.628c0,0-1.604-3.104-2.135-4.083c-0.529-0.979-0.779-1.379-0.989-2.464s-1.048-5.737-0.827-7.363
					c0.22-1.627,3.01-4.078,5.143-4.256c0.977-1.311,2.967-1.75,4.893-1.764c1.926-0.013,3.368-0.075,5.678,1.723
					c2.311,1.798,2.262,3.205,2.44,3.644c0.179,0.438,0.354,2.388,0.354,2.388l-0.286-1.069c0,0-0.916,0.605-3.771,0.358
					c-2.856-0.247-4.43-1.388-4.43-1.388s0.524,2.022,0.416,2.77c-0.108,0.748-0.55,3.063-0.55,3.063s-1.469,0.873-1.958,1.216
					s-0.72,1.138-0.72,1.138l-0.186,1.985L84.916,47.015z"/>
				<path fill="#FECB4C" d="M97.59,38.916l-0.412,0.516c0,0-7.555,2.229-8.318,2.415c-0.352,0.083-0.93,0.351-1.775,0.619
					c-1.053,0.351-2.497,0.723-4.416,0.867c-3.427,0.289-3.427,0.289-3.427,0.289s-1.095-3.282-0.578-6.295
					c0.413-2.394,3.179-4.479,6.398-5.449c0,0,0.021,0,0.021-0.021c0.826-0.248,1.693-0.433,2.56-0.516
					c4.19-0.433,7.017,1.342,8.358,3.365C97.321,36.728,97.59,38.916,97.59,38.916z"/>
				<path fill="#FCF5E8" d="M87.084,42.465c-1.053,0.351-2.497,0.723-4.416,0.867c-3.427,0.289-3.427,0.289-3.427,0.289
					s-1.095-3.282-0.578-6.295c0.413-2.394,3.179-4.479,6.398-5.449c-0.847,0.495-3.323,1.114-2.642,5.924
					C82.977,41.743,86.011,42.362,87.084,42.465z"/>
				<path fill="#725E6D" d="M87.088,42.462c0,0,6.018,5.177,8.088,3.091c1.459-1.47,5.081-2.875,6.672-2.401
					c1.592,0.473,1.592,0.473,1.592,0.473s0.336-0.068,0.293-0.456s-6.148-4.257-6.148-4.257S95.166,36.337,87.088,42.462z"/>
				
					<linearGradient id="SVGID_3_" gradientUnits="userSpaceOnUse" x1="5884.7471" y1="-776" x2="5887.8457" y2="-776" gradientTransform="matrix(-0.986 0.1666 0.1666 0.986 6015.8906 -168.579)">
					<stop  offset="0.1224" style="stop-color:#FEB9B8"/>
					<stop  offset="1" style="stop-color:#FFDEDE"/>
				</linearGradient>
				<path fill="url(#SVGID_3_)" d="M84.082,45.697c0,0-0.846-2.228-2.551-1.367c-1.703,0.861,0.741,5.307,1.846,5.368
					c1.104,0.061,0.898-1.077,0.898-1.077S83.087,46.751,84.082,45.697z"/>
			</g>
		</g>
		<g>
			<path fill="#FEBFBF" d="M72.083,95.465c0,0-1.344-2.744-1.888-8.008c-0.544-5.265-2.083-21.706,0.273-23.953
				c2.356-2.248,5.553,0.027,6.641,2.334c1.088,2.307,1.689,14.031,1.469,18.01c-0.223,3.979,0.037,6.742-0.98,8.718
				C76.581,94.542,75.177,95.839,72.083,95.465z"/>
		</g>
	</g>
	<path fill="#FFDC6E" d="M72.26,62.363c-1.164,0-3.493,1.3-3.493,5.634c0,5.047,0.528,9.759,0.591,11.436
		c1.32,0.654,3.544,0.793,5.608,0.687c2.063-0.106,3.961-0.626,3.961-0.916s-0.38-8.727-1.251-12.08
		C76.806,63.769,73.841,62.363,72.26,62.363z"/>
	<g>
		<polygon fill="#A25900" points="137.58,169.241 141.351,171.418 141.351,177.694 137.58,175.516 		"/>
		<g>
			<g>
				<path fill="#3B4549" d="M129.172,171.458c0-2.627-1.856-5.83-4.146-7.15c-1.092-0.631-2.079-0.707-2.819-0.342l-0.011-0.01
					l-0.074,0.041c-0.017,0.01-0.033,0.02-0.049,0.029l-1.847,1.064l0.694,1.148c-0.012,0.145-0.039,0.275-0.039,0.432
					c0,2.627,1.855,5.828,4.145,7.15c0.231,0.133,0.453,0.225,0.674,0.311l0.578,0.955l1.664-0.961
					c0.01-0.006,0.02-0.012,0.029-0.018l0.079-0.045l0.001-0.02C128.74,173.592,129.172,172.709,129.172,171.458z"/>
				<path fill="#5C6467" d="M119.109,167.694c0,2.627,1.855,5.828,4.145,7.15c2.289,1.32,4.146,0.264,4.146-2.365
					c0-2.627-1.856-5.828-4.146-7.15C120.965,164.008,119.109,165.065,119.109,167.694z"/>
				<path fill="#3B4549" d="M126.688,172.891c0-2.629-1.855-5.83-4.145-7.15c-1.094-0.631-2.08-0.707-2.82-0.342l-0.012-0.01
					l-0.073,0.041c-0.017,0.01-0.033,0.02-0.05,0.029l-1.846,1.064l0.694,1.148c-0.013,0.145-0.04,0.275-0.04,0.432
					c0,2.627,1.856,5.828,4.146,7.15c0.23,0.133,0.453,0.225,0.673,0.311l0.578,0.955l1.664-0.961
					c0.01-0.006,0.02-0.012,0.029-0.018l0.079-0.045v-0.02C126.258,175.026,126.688,174.143,126.688,172.891z"/>
				<path fill="#5C6467" d="M116.625,169.127c0,2.627,1.855,5.828,4.146,7.15c2.29,1.32,4.146,0.264,4.146-2.365
					c0-2.627-1.855-5.828-4.146-7.15C118.48,165.442,116.625,166.499,116.625,169.127z"/>
			</g>
			<polygon fill="#CE7400" points="126.041,177.963 126.041,182.071 123.863,183.329 117.865,168.206 122.039,169.098 			"/>
			<polygon fill="#EDA600" points="123.863,179.221 123.863,183.329 115.688,177.342 115.688,169.463 119.861,170.354 			"/>
			<polygon fill="#EDA600" points="115.39,172.909 125.726,166.94 125.726,165.78 110.928,169.17 110.928,170.333 			"/>
			<polygon fill="#FECB4C" points="115.39,171.747 125.726,165.78 121.264,163.204 110.928,169.17 			"/>
			<g>
				<path fill="#3B4549" d="M117.419,178.258c0-2.627-1.856-5.828-4.146-7.15c-1.094-0.631-2.08-0.705-2.82-0.34l-0.01-0.012
					l-0.074,0.043c-0.018,0.01-0.033,0.02-0.051,0.029l-1.846,1.064l0.695,1.146c-0.013,0.145-0.04,0.275-0.04,0.432
					c0,2.627,1.856,5.828,4.146,7.15c0.23,0.133,0.453,0.227,0.674,0.313l0.578,0.953l1.664-0.961c0.01-0.006,0.02-0.01,0.029-0.016
					l0.078-0.047l0.002-0.02C116.988,180.393,117.419,179.512,117.419,178.258z"/>
				<path fill="#5C6467" d="M107.355,174.495c0,2.627,1.856,5.828,4.146,7.15c2.289,1.322,4.145,0.264,4.145-2.363
					s-1.855-5.828-4.145-7.15C109.212,170.809,107.355,171.868,107.355,174.495z"/>
				<path fill="#3B4549" d="M114.936,179.692c0-2.627-1.856-5.828-4.146-7.15c-1.092-0.631-2.079-0.705-2.819-0.34l-0.011-0.012
					l-0.074,0.043c-0.017,0.01-0.033,0.02-0.05,0.029l-1.846,1.064l0.695,1.146c-0.013,0.145-0.04,0.275-0.04,0.432
					c0,2.627,1.855,5.828,4.145,7.15c0.231,0.133,0.453,0.227,0.674,0.311l0.578,0.955l1.664-0.961
					c0.01-0.006,0.02-0.01,0.029-0.016l0.079-0.047l0.001-0.02C114.504,181.827,114.936,180.946,114.936,179.692z"/>
				<path fill="#5C6467" d="M104.873,175.928c0,2.627,1.855,5.828,4.145,7.15s4.146,0.264,4.146-2.363s-1.856-5.828-4.146-7.15
					S104.873,173.301,104.873,175.928z"/>
			</g>
			<polygon fill="#CE7400" points="125.726,165.78 125.726,166.94 115.39,172.909 115.39,171.747 			"/>
		</g>
		<g>
			
				<rect x="93.348" y="145.703" transform="matrix(0.1729 0.9849 -0.9849 0.1729 240.8705 6.7193)" fill="#FFC536" width="46.173" height="2.146"/>
		</g>
		<g>
			<path fill="#554D4E" d="M107.773,127.727c-1.305,0-2.476-0.449-3.33-1.343l-4.707-4.913c-0.616-0.643-1.031-1.493-1.201-2.457
				l-0.852-4.901c-0.557-3.197,1.662-7.234,5.055-9.193l10.751-6.207c1.983-1.146,4.041-1.373,5.646-0.62
				c1.3,0.607,2.162,1.785,2.429,3.316l0.853,4.898c0.158,0.897,0.105,1.869-0.156,2.887l-2.294,8.956
				c-0.661,2.591-2.57,5.065-4.981,6.458l-3.549,2.049C110.195,127.373,108.932,127.727,107.773,127.727z M117.09,100.381
				c-0.666,0-1.447,0.237-2.238,0.693l-10.751,6.207c-2.382,1.376-4.091,4.29-3.733,6.363l0.854,4.899
				c0.076,0.434,0.24,0.785,0.483,1.039l4.708,4.916c0.703,0.734,2.174,0.651,3.66-0.205l3.551-2.049
				c1.768-1.021,3.223-2.896,3.701-4.771l2.295-8.959c0.16-0.632,0.201-1.232,0.112-1.738l-0.853-4.9
				c-0.113-0.646-0.416-1.089-0.898-1.314C117.723,100.441,117.42,100.381,117.09,100.381z"/>
		</g>
		<path fill="#FECB4C" d="M121.896,154.096c0.977-1.637,2.275-2.987,3.627-3.768s2.652-0.932,3.628-0.422l3.771,2.178l-0.318,0.184
			l15.738,10.762v5.777l-45.637,26.348v-5.777L121.896,154.096z"/>
		<path fill="#ED9600" d="M106.479,191.557v6.273l10.633-6.139l0.108-4.502l24.131-13.941v4.445l10.762-6.211v-6.273l-19.193-13.127
			c-0.972-0.508-2.272-0.357-3.624,0.422c-1.35,0.779-2.65,2.129-3.629,3.766L106.479,191.557z"/>
		<g>
			<polygon fill="#EDA600" points="196.949,207.293 205.545,202.331 143.518,173.942 143.518,176.444 			"/>
			<polygon fill="#EDA600" points="196.949,207.293 205.545,202.331 216.902,211.012 211.985,213.85 			"/>
		</g>
		<g>
			<polygon fill="#EDA600" points="159.908,228.68 168.504,223.717 106.476,195.329 106.476,197.831 			"/>
			<polygon fill="#EDA600" points="159.908,228.68 168.504,223.717 179.86,232.397 174.943,235.237 			"/>
		</g>
		<g>
			<polygon fill="#FECB4C" points="196.949,204.792 205.545,199.829 152.111,168.981 143.518,173.942 			"/>
			<polygon fill="#FECB4C" points="196.949,204.792 205.545,199.829 216.902,208.51 211.985,211.348 			"/>
		</g>
		<g>
			<polygon fill="#FECB4C" points="159.908,226.178 168.504,221.215 115.07,190.366 106.476,195.329 			"/>
			<polygon fill="#FECB4C" points="159.908,226.178 168.504,221.215 179.86,229.897 174.943,232.735 			"/>
		</g>
		<polygon fill="#EDA600" points="102.705,189.377 106.476,191.555 106.476,197.831 102.705,195.653 		"/>
		<polygon fill="#ED9600" points="216.902,208.51 216.902,211.012 211.985,213.85 211.985,211.348 		"/>
		<polygon fill="#ED9600" points="179.86,229.897 179.86,232.397 174.943,235.237 174.943,232.735 		"/>
		<g>
			
				<rect x="99.709" y="112.419" transform="matrix(0.1801 0.9836 -0.9836 0.1801 202.5666 -15.4684)" fill="#554D4E" width="21.707" height="2.725"/>
		</g>
	</g>
	<g>
		<path fill="#FEBFBF" d="M118.932,99.183c-0.021,0.083-0.578,2.91-0.619,3.24c-0.042,0.31-0.619,0.578-0.619,0.578
			s-0.289,0.454-0.744,0.599c-0.453,0.165-1.094,0.124-1.094,0.124s-4.52-0.702-5.015-1.569c-0.454-0.825-1.197-3.57-1.28-3.983
			v-0.021c-0.02-0.021-0.02-0.021-0.02-0.021c-0.021-0.082-0.559-1.589-3.571-4.107c-2.993-2.518-5.655-6.79-6.026-8.256
			l-0.021-1.651l-0.021-1.114c0,0,0.743-0.289,1.692-0.64c0.021-0.021,0.021-0.021,0.021-0.021c1.485-0.558,3.427-1.259,3.716-1.156
			c0.021-0.021,0.021-0.021,0.021,0c0.144,0.289,1.177,1.032,2.91,4.604c1.754,3.57,5.056,10.133,5.346,10.299
			c0.269,0.186,4.417,1.032,4.87,1.548C118.932,98.151,118.951,99.101,118.932,99.183z"/>
		
			<linearGradient id="SVGID_4_" gradientUnits="userSpaceOnUse" x1="-3196.2666" y1="90.7642" x2="-3188.3396" y2="100.7989" gradientTransform="matrix(1 0 0 1 3301.832 0)">
			<stop  offset="0.1224" style="stop-color:#FCA4B5"/>
			<stop  offset="0.9896" style="stop-color:#FFADB7"/>
		</linearGradient>
		<path fill="url(#SVGID_4_)" d="M109.623,97.387c-0.082,0.187-0.104,0.475-0.063,0.764c-0.02-0.021-0.02-0.021-0.02-0.021
			c-0.021-0.082-0.559-1.589-3.571-4.107c-2.993-2.518-5.655-6.79-6.026-8.256l-0.021-1.651l-0.021-1.114
			c0,0,0.743-0.289,1.692-0.64c-0.124,0.145-0.759,1.232-0.655,2.243c0,0.248,0.159,0.856,0.284,1.166
			c0.639,1.651,4.236,6.787,5.799,8.396c1.586,1.632,2.85,2.766,2.85,2.766S109.871,96.933,109.623,97.387z"/>
		<path fill="#FA9698" d="M112.4,101.449c0,0,0.424-0.525,0.729-1.335c0.305-0.811,0.521-1.335,0.521-1.335l0.373,1.629l0.027,1.463
			l0.502,0.926l0.686,0.499l-1.457,0.028C113.781,103.324,112.156,102.332,112.4,101.449z"/>
		<path fill="#FEC7C6" d="M110.094,97.665c0,0,1.104-0.142,1.633,1.332c0.529,1.475,1.014,2.712,1.389,3.135s1.28,0.804,1.28,0.804
			s1.424,0.551,1.593,0.822c0.168,0.271,0.309,0.6,0.236,1.021s-0.652,0.332-0.707,0.305c-0.055-0.029-0.91-0.276-0.91-0.276
			s-0.751,0.05-1.03-0.125c-0.279-0.176-2.532-1.816-2.837-2.368c-0.303-0.552-0.998-2.282-1.084-3.342
			C109.57,97.914,109.641,97.768,110.094,97.665z"/>
		<path fill="#FEBFBF" d="M74.62,90.03c0,0,2.382-0.641,3.933,0.521S92.12,101.78,95.461,102.93c0.18,0.127,2.099,0.995,3.102,1.127
			c1.002,0.131,4.424-0.03,4.849,0.203s1.53,2.76,1.659,3.233c0.131,0.473,0.096,1.658,0.004,1.869
			c-0.09,0.211-1.253,0.277-1.253,0.277s-0.128,0.471-0.398,0.829c-0.271,0.358-1.442,0.271-1.442,0.271s-0.21,0.235-0.723,0.265
			c-0.514,0.029-0.814-0.142-0.814-0.142s-0.363,0.552-1.396,0.182c-1.033-0.369-1.119-0.965-1.119-0.965l-0.122-1.245
			c0,0-2.454-0.015-3.623-0.668c-1.17-0.653-1.742-1.667-2.597-2.202c-0.854-0.534-18.128-6.238-19.503-10.499
			C70.708,91.204,74.62,90.03,74.62,90.03z"/>
	</g>
	<g>
		<g>
			<g>
				<polygon fill="#C99A6B" points="149.662,218.383 192.125,193.868 192.125,168.963 149.662,193.479 				"/>
				<polygon fill="#AE835B" points="149.662,218.383 114.936,198.333 114.936,173.428 149.662,193.479 				"/>
				<polygon fill="#87623F" points="149.662,193.479 114.936,173.428 157.398,148.912 192.125,168.963 				"/>
				<polygon fill="#9C754E" points="134.746,200.608 129.166,197.387 129.166,181.645 134.746,184.866 				"/>
				<polygon fill="#54493E" points="134.746,184.866 177.209,160.35 171.629,157.129 129.166,181.645 				"/>
				<polygon fill="#87623F" points="114.936,173.428 149.662,193.479 130.924,183.454 				"/>
			</g>
			<polygon fill="#D1A986" points="132.166,183.375 174.629,158.86 174.244,158.639 131.781,183.155 			"/>
		</g>
		<g>
			<g>
				<path fill="#87623F" d="M147.377,203.354l-7.33-4.23v-8.414l7.33,4.23V203.354z M140.531,198.844l6.362,3.674v-7.299
					l-6.362-3.676V198.844z"/>
			</g>
			<g>
				<polygon fill="#87623F" points="144.521,200.659 142.904,199.727 142.904,195.489 144.521,196.422 				"/>
				<polygon fill="#87623F" points="146.109,198.147 141.314,195.377 143.713,193.87 				"/>
			</g>
		</g>
	</g>
	<g>
		<g>
			<g>
				<polygon fill="#C99A6B" points="149.662,192.44 192.125,167.922 192.125,143.018 149.662,167.534 				"/>
				<polygon fill="#AE835B" points="149.662,192.44 114.936,172.389 114.936,147.484 149.662,167.534 				"/>
				<polygon fill="#E8B687" points="149.662,167.534 114.936,147.484 157.398,122.968 192.125,143.018 				"/>
				<polygon fill="#9C754E" points="134.746,174.665 129.166,171.444 129.166,155.7 134.746,158.922 				"/>
				<polygon fill="#54493E" points="134.746,158.922 177.209,134.406 171.629,131.184 129.166,155.7 				"/>
				<polygon fill="#87623F" points="114.936,147.484 149.662,167.534 130.924,157.508 				"/>
			</g>
			<polygon fill="#D1A986" points="132.166,157.432 174.629,132.916 174.244,132.694 131.781,157.211 			"/>
		</g>
		<g>
			<g>
				<path fill="#87623F" d="M147.377,177.411l-7.33-4.232v-8.414l7.33,4.232V177.411z M140.531,172.899l6.362,3.676v-7.301
					l-6.362-3.674V172.899z"/>
			</g>
			<g>
				<polygon fill="#87623F" points="144.521,174.715 142.904,173.782 142.904,169.545 144.521,170.479 				"/>
				<polygon fill="#87623F" points="146.109,172.204 141.314,169.434 143.713,167.926 				"/>
			</g>
		</g>
	</g>
</g>
</svg>
