<?xml version="1.0" encoding="utf-8"?>
<!-- Generator: Adobe Illustrator 16.0.0, SVG Export Plug-In . SVG Version: 6.00 Build 0)  -->
<!DOCTYPE svg PUBLIC "-//W3C//DTD SVG 1.1//EN" "http://www.w3.org/Graphics/SVG/1.1/DTD/svg11.dtd">
<svg version="1.1" id="Layer_1" xmlns="http://www.w3.org/2000/svg" xmlns:xlink="http://www.w3.org/1999/xlink" x="0px" y="0px"
	 width="280.487px" height="273.333px" viewBox="0 0 280.487 273.333" enable-background="new 0 0 280.487 273.333"
	 xml:space="preserve">
<g>
	<g>
		<path fill="#BFB5BF" d="M189.703,176.784c-11.354-6.556-29.703-6.589-40.986-0.074c-2.932,1.692-5.08,3.664-6.48,5.765
			c-1.307,0.535-2.568,1.123-3.738,1.798c-11.282,6.515-11.225,17.108,0.129,23.663c11.354,6.556,29.703,6.588,40.984,0.074
			c2.933-1.692,5.082-3.664,6.482-5.765c1.307-0.535,2.568-1.123,3.737-1.799C201.114,193.932,201.057,183.337,189.703,176.784z"/>
		<g>
			<g>
				<path fill="#FEBFBF" d="M154.919,72.379c0,0-4.173,0.654-5.37,4.394c-1.199,3.74-1.426,14.925-1.825,17.165
					c-0.398,2.24-1.194,4.678-1.371,4.889c-0.177,0.211-0.87,0.779,0.929,3.195c1.797,2.415,4.154,3.703,5.268,2.496
					c1.115-1.208,2.254-10.908,2.425-15.036C155.145,85.354,154.919,72.379,154.919,72.379z"/>
				<path fill="#FEBFBF" d="M129.304,123.395c0,0,0.796,1.328,0.951,1.372s0.819,0.708,1.283,0.62
					c0.442-0.066,0.863-0.686,0.863-0.686s0.841,0.863,1.372,0.819c0.53-0.022,1.018-0.398,1.018-0.398s0.797,0.044,1.105-0.243
					c0.288-0.288,0.288-0.288,0.288-0.288s0.841-0.265,1.085-0.686c0.265-0.443-0.244-1.881-0.244-1.881s0.842-1.792,0.907-2.478
					c0.044-0.398,0-0.796-0.044-1.084c-0.066-0.221-0.089-0.332-0.089-0.332s13.253-10.775,14.293-13.099
					c0.708-1.548-1.46-3.407-3.009-4.491c-0.797-0.532-1.416-0.886-1.416-0.886s-1.15-0.575-1.57-0.398
					c-0.398,0.199-2.103,1.46-3.873,4.536c-1.792,3.053-5.089,6.616-7.146,9.271c-2.058,2.655-5.863,7.766-6.106,8.275
					C128.729,121.868,129.304,123.395,129.304,123.395z"/>
				
					<linearGradient id="SVGID_1_" gradientUnits="userSpaceOnUse" x1="8416.8242" y1="111.0405" x2="8426.1943" y2="122.9023" gradientTransform="matrix(-1 0 0 1 8560.9355 0)">
					<stop  offset="0.1224" style="stop-color:#FCA4B5"/>
					<stop  offset="0.9896" style="stop-color:#FFADB7"/>
				</linearGradient>
				<path fill="url(#SVGID_1_)" d="M136.162,117.222c0,0,0,0,0.554,0.132c0.554,0.155,1.084,0.774,1.084,0.774
					s13.253-10.775,14.293-13.099c0.708-1.548-1.46-3.407-3.009-4.491c-0.221,2.544-0.664,4.956-0.951,6.217
					c-0.42,1.902-7.545,8.208-8.873,9.447C137.933,117.465,136.162,117.222,136.162,117.222z"/>
				<path fill="#FA9698" d="M137.027,122.027c0,0-0.038-0.403-0.487-0.502c-0.45-0.098-0.691-0.094-0.691-0.094
					s-0.146-0.294-0.653-0.375c-0.508-0.08-0.706,0.152-0.706,0.152s-0.552-0.081-0.856,0.075l-1.725,0.647l0.99,3.03l-0.828,0.125
					l-0.514-1.536l-0.244-0.515c0,0-0.357,0.173-0.486,0.304s-0.227,0.025-0.227,0.025s-0.454-0.877-0.414-1.168
					c0.039-0.291,0.258-1.077,0.258-1.077s0.827,0.187,1.123,0.191c0.297,0.003,2.5-0.596,2.5-0.596l1.354-0.49l0.49-1.008
					l0.143,1.668l0.525,0.361C136.578,121.246,137.133,121.384,137.027,122.027z"/>
				<path fill="#FFDC6E" d="M157.966,69.243c0,0-6.534-0.691-8.278,6.125c-0.981,3.834-2.715,14.514-2.715,14.514
					s2.859,2.961,7.045,3.08S157.966,69.243,157.966,69.243z"/>
			</g>
			<g>
				<path fill="#5C6467" d="M152.143,190.79c0,0-3.512,1.613-4.197,2.195c-0.685,0.583-5.043,4.231-5.334,4.797
					c-0.291,0.564-1.656,1.703-1.674,2.957c-0.016,1.254,1.516,2.435,2.807,2.4c1.291-0.033,5.395-1.35,7.01-2.977
					c1.615-1.626,2.592-2.773,2.887-2.863s0.32,0.082,1.055,0.206c0.732,0.124,3.701-1.246,4.061-2.051s1.113-4.113,0.658-5.056
					S152.143,190.79,152.143,190.79z"/>
				<path fill="#FEBFBF" d="M151.664,189.756c0,0-3.271,3.329-3.567,4.089s1.173,1.483,3.224,1.578s4.593-2.053,4.593-2.053
					s2.194-3.14,1.23-4.755S151.664,189.756,151.664,189.756z"/>
				<path fill="#7282B5" d="M147.49,138.662c0.377,11.859,0.133,15.222,0.398,18.807c0.244,3.562,2.213,31.661,2.235,33.077
					c0.022,1.395,3.03,2.19,4.911,2.08h0.066c1.902-0.111,3.584-1.814,3.629-2.788c0.045-0.951,2.19-24.78,0.664-32.745
					c-0.443-2.324,4.115-18.232,4.115-18.232s0.044-0.509,0.133-1.328c0.309-3.208,0.951-11.262,0.11-13.297
					c-1.062-2.567-14.735-0.332-14.735-0.332S147.115,126.78,147.49,138.662z"/>
				<path fill="#E8D0C8" d="M155.035,192.625h0.066c1.902-0.111,3.584-1.814,3.629-2.788c0.045-0.951,2.19-24.78,0.664-32.745
					c-0.443-2.324,4.115-18.232,4.115-18.232s0.044-0.509,0.133-1.328l-6.779-1.53c0,0,1.238,2.213-0.089,6.549
					c-1.35,4.315,0.938,13.169,0.761,14.452c-0.177,1.283,1.482,1.77,1.018,11.351C158.178,176.186,158.354,188.068,155.035,192.625
					z"/>
				<path fill="#5C6467" d="M178.715,183.057c0,0-2.362,3.399-2.653,3.965s-3.622,6.063-3.745,6.796
					c-0.125,0.733,0.047,1.369,0.573,1.895c0.525,0.526,2.552,1.259,3.956,0.882s3.59-1.571,4.742-2.773
					c1.152-1.201,2.5-4.549,2.5-4.549s1.409-1.577,1.793-2.35c0.383-0.773,1.336-1.785,1.438-2.886
					c0.102-1.1,0.222-1.806-0.809-2.65C185.479,180.542,178.715,183.057,178.715,183.057z"/>
				<path fill="#FEBFBF" d="M178.612,182.242c0,0-1.192,3.524-1.226,4.217s1.676,1.462,3.26,1.227s2.186-1.72,2.652-2.175
					c0.469-0.455,2.3-3.624,1.809-4.685C184.617,179.765,178.612,182.242,178.612,182.242z"/>
				<path fill="#7282B5" d="M154.881,133.086c-0.111,1.991,1.504,4.38,1.504,4.38l3.695,4.757c0,0,2.279,2.103,5.775,19.382
					c2.832,5.531,11.793,21.617,11.793,21.617s2.588,2.654,5.598,1.194c1.238-0.598,2.123-1.371,2.677-2.079
					c0.642-0.797,0.929-1.483,0.907-1.704c-0.045-1.173-5.842-15.555-6.615-17.634c-0.752-2.059-3.717-7.125-3.717-7.125
					s-0.023-7.677,0.221-10.244c0.42-4.691,4.491-16.351,3.098-18.674c-0.199-0.332-0.863-0.598-1.881-0.797
					c-5.775-1.173-22.523-0.199-22.523-0.199S154.992,131.095,154.881,133.086z"/>
				<g>
					<path fill="#A0ABCD" d="M185.656,182.415l0.531-0.155c-4.392-15.045-7.724-19.398-9.716-22
						c-0.663-0.866-1.142-1.492-1.431-2.242c-2.518-6.545,0.707-18.391,1.379-20.699c1.566-5.396,0.866-8.975,0.834-9.124
						l-0.54,0.11c0.006,0.035,0.7,3.606-0.825,8.858c-0.682,2.338-3.943,14.341-1.361,21.053c0.314,0.824,0.814,1.476,1.506,2.379
						C177.999,163.167,181.292,167.468,185.656,182.415z"/>
				</g>
				<path fill="#E8D0C8" d="M175.28,157.047c2.833,2.987,5.466,10.178,7.479,15.156c1.659,4.115,3.031,7.168,3.164,10.134
					c0.642-0.797,0.929-1.483,0.907-1.704c-0.045-1.173-5.842-15.555-6.615-17.634c-0.752-2.059-3.717-7.125-3.717-7.125
					s-0.023-7.677,0.221-10.244c0.42-4.691,4.491-16.351,3.098-18.674c-0.199-0.332-0.863-0.598-1.881-0.797
					c0,0.066-0.022,0.133-0.022,0.199c0,0,1.019,0.487-0.53,7.191S173.842,151.25,175.28,157.047z"/>
				<path fill="#FDD249" d="M148.133,125.01c0.906,1.172,6.682,4.004,13.762,5.332c2.213,0.42,4.535,0.686,6.902,0.708h0.023
					c1.15,0,2.301-0.044,3.451-0.155c2.721-0.266,4.979-1.417,6.527-2.457c1.46-0.995,2.301-1.881,2.301-1.881
					s-3.938-11.593-0.752-24.758c0.354-1.482,0.686-2.854,0.951-4.115c2.213-9.956,1.947-13.519,0.641-17.103
					c-1.238-3.452-7.102-5.708-10.111-8.164c-3.008-2.434-6.172-2.28-8.297-2.036c-2.123,0.243-7.986-2.323-11.195,1.991
					c-1.593,2.146-3.252,11.771-2.898,17.125c0.354,5.354,0.023,13.563,0.023,18.851C149.461,113.637,148.133,125.01,148.133,125.01
					z"/>
				<path fill="#DEDEDE" d="M160.125,133.13c0,0,7.322-1.594,8.672-2.08h0.023c1.349-0.531,1.836-3.098,4.668-4.89
					c2.854-1.792,3.606-3.164,3.606-3.164s1.261,2.146,1.704,5.442c1.46-0.995,2.301-1.881,2.301-1.881s-3.938-11.593-0.752-24.758
					c0.354-1.482,0.686-2.854,0.951-4.115c-2.522-4.69-5.465-8.187-8.651-8.23c0,0-0.021,5.608,1.085,12.158
					c1.105,6.549,0.309,9.68,0.309,9.68l-12.146,19.05L160.125,133.13z"/>
				<path fill="#FFADB7" d="M158.73,73.104c0.021,2.168-0.111,2.987,0.31,3.651c0.421,0.642,3.629,1.239,5.267,0.642
					c0.598-0.222,1.15-0.443,1.637-0.686c2.744-1.372,4.027-3.01,4.336-3.651c0.377-0.752-0.065-1.349-0.065-1.349
					s-1.638-1.438-2.014-5.244c-0.022-0.288,0.133-4.845,0.199-6.438c0.022-0.354,0.022-0.553,0.022-0.553s-1.416-2.81-2.744-2.654
					c-0.707,0.088-2.811,2.035-4.602,3.827c-1.549,1.526-2.877,2.921-2.877,2.921s0.42,5.996,0.509,8.762
					C158.73,72.639,158.73,72.882,158.73,73.104z"/>
				
					<linearGradient id="SVGID_2_" gradientUnits="userSpaceOnUse" x1="8396.2559" y1="67.8115" x2="8403.2002" y2="76.6024" gradientTransform="matrix(-1 0 0 1 8560.9355 0)">
					<stop  offset="0.1224" style="stop-color:#FCA4B5"/>
					<stop  offset="0.9896" style="stop-color:#FFADB7"/>
				</linearGradient>
				<path fill="url(#SVGID_2_)" d="M158.199,63.568c0,0,0.42,5.996,0.509,8.762c0.288,0.11,0.708,0.133,1.261,0.044
					c2.391-0.376,4.713-2.788,5.797-2.08c1.084,0.664,2.036,4.16,0.178,6.417c2.744-1.372,4.027-3.01,4.336-3.651
					c0.377-0.752-0.065-1.349-0.065-1.349s-1.638-1.438-2.014-5.244c-0.022-0.288,0.133-4.845,0.199-6.438
					c-2.854,0.443-5.333,0.509-7.323,0.62C159.527,62.173,158.199,63.568,158.199,63.568z"/>
				<path fill="#FEBFBF" d="M167.054,59.292c0,0-0.3,6.736-0.96,8.161s-5.412,5.09-9.997,4.455
					c-1.229-0.655-3.122-4.047-3.338-7.043c-0.216-2.997,0.026-4.102-0.041-4.364c-0.067-0.262-0.987-2.094-0.845-2.935
					c0.143-0.842,0.384-5.577,2.019-7.647c1.635-2.069,6.151-3.345,10.204-1.711C168.148,49.841,167.054,59.292,167.054,59.292z"/>
				<path fill="#754554" d="M165.617,61.674c0,0-0.387-2.663,1.284-3.135c1.672-0.471,1.05,3.271,1.05,3.271l0.202,3.992
					l0.058,0.674c0,0,1.619-3.448,2.188-4.497c0.568-1.049,0.836-1.479,1.061-2.641c0.225-1.163,1.123-6.15,0.887-7.894
					c-0.236-1.744-3.227-4.372-5.514-4.563c-1.047-1.406-3.19-2.104-5.256-2.117c-2.063-0.013-3.599,0.146-6.075,2.074
					c-2.477,1.927-2.564,3.45-2.755,3.92c-0.191,0.47-0.206,2.403-0.206,2.403l0.272-1.004c0,0,0.982,0.649,4.043,0.384
					c3.061-0.265,4.748-1.488,4.748-1.488s-0.562,2.167-0.446,2.969c0.116,0.802,0.591,3.284,0.591,3.284s1.573,0.936,2.098,1.304
					c0.523,0.368,0.771,1.22,0.771,1.22l0.199,2.128L165.617,61.674z"/>
				
					<linearGradient id="SVGID_3_" gradientUnits="userSpaceOnUse" x1="-5562.9814" y1="1173.1138" x2="-5559.6611" y2="1173.1138" gradientTransform="matrix(0.986 0.1666 -0.1666 0.986 5846.876 -168.579)">
					<stop  offset="0.1224" style="stop-color:#FEB9B8"/>
					<stop  offset="1" style="stop-color:#FFDEDE"/>
				</linearGradient>
				<path fill="url(#SVGID_3_)" d="M166.514,60.262c0,0,0.905-2.389,2.732-1.465s-0.793,5.689-1.979,5.754
					c-1.184,0.065-0.963-1.154-0.963-1.154S167.579,61.391,166.514,60.262z"/>
			</g>
		</g>
		<polygon fill="#BFB5BF" points="155.828,216.25 121.828,196.62 108.102,204.544 115.629,208.89 76.166,231.675 101.241,246.152 
			140.705,223.368 142.102,224.174 		"/>
		<g>
			<polygon fill="#5C6467" points="162.348,132.765 152.643,135.82 153.697,139.017 163.387,135.97 			"/>
			<path fill="#FEBFBF" d="M183.115,111.082c-0.452,2.296-1.498,4.275-3.98,7.234c-2.47,2.946-12.834,10.67-13.601,12.855
				c-0.767,2.199-0.294,4.711-0.697,5.561c-0.39,0.849-1.213,2.209-1.741,2.495c-0.092,0.045-0.199,0.092-0.332,0.126
				c-0.615,0.195-1.491,0.296-1.491,0.296l-1.335-0.093l-2.523,0.296c0,0-1.24-0.097-1.342-0.485
				c-0.102-0.375-0.055-1.042-0.055-1.042s-0.415,0.375-0.85,0.615l-0.014,0.014c-0.236,0.148-0.502,0.244-0.695,0.199
				c-0.536-0.134-0.348-0.945-0.086-1.624c0.264-0.679,1.092-3.75,1.463-4.163c0.359-0.399,5.713-4.156,7.057-6.209
				c1.356-2.067,12.792-16.728,12.792-16.728s1.065-3.187,0.298-5.265c-0.769-2.079-6.861-22.652,1.433-26.121
				c2.89-0.453,4.929,1.709,5.604,7.475C183.692,92.297,183.58,108.786,183.115,111.082z"/>
			<path fill="#FA9698" d="M162.764,139.353c-0.615,0.195-1.491,0.296-1.491,0.296l-1.335-0.093l-2.523,0.296
				c0,0-1.24-0.097-1.342-0.485c-0.102-0.375-0.055-1.042-0.055-1.042s-0.415,0.375-0.85,0.615c0.384-0.428,0.712-0.907,0.712-0.907
				s0.192-0.974,0.485-1.356c0.291-0.382,1.336-1.428,1.336-1.428c0.324-0.017,0.719,1.794,0.719,1.794l-0.263,1.195l-1.147-0.401
				c0,0-0.089-0.647,0.02-0.897c0.123-0.251,0.799-1.087,0.799-1.087l-1.186,0.687c0,0-0.304,0.681-0.459,1.083
				c-0.141,0.415,0.123,1.813,0.123,1.813s0.293,0.161,1.145,0.075c0.836-0.085,2.795-0.541,2.795-0.541l0.404,0.209l1.361,0.078
				L162.764,139.353z"/>
			<path fill="#5C6467" d="M157.789,135.294l-1.248,1.172c0,0-0.367,1.061-0.383,1.285s-0.008,0.494-0.008,0.494l2.09-0.657
				l0.08-0.531C158.32,137.058,158.239,135.558,157.789,135.294z"/>
			<polygon fill="#5C6467" points="139.258,121.966 129.41,124.916 128.57,121.666 138.2,118.769 			"/>
			<g>
				<path fill="#5C6467" d="M137.672,119.446c-0.167,0.739,0.151,1.759,0.712,2.276s1.149,0.338,1.317-0.402
					c0.167-0.739-0.152-1.758-0.713-2.276C138.429,118.526,137.838,118.706,137.672,119.446z"/>
				<path fill="#3B4549" d="M128.208,120.728l0.87-0.268c0.01-0.003,0.021-0.006,0.031-0.009l0.047-0.015l0.004,0.008
					c0.366-0.083,0.795,0.051,1.215,0.439c0.891,0.823,1.398,2.443,1.132,3.619c-0.131,0.58-0.427,0.94-0.798,1.061v0.002
					l-0.013,0.004l-0.004,0.001l-0.868,0.27l-0.16-0.507c-0.084-0.058-0.168-0.116-0.252-0.193
					c-0.891-0.823-1.396-2.443-1.131-3.619c0.022-0.103,0.057-0.189,0.09-0.278L128.208,120.728z"/>
				<path fill="#5C6467" d="M127.385,121.799c-0.266,1.176,0.24,2.796,1.131,3.619c0.892,0.823,1.829,0.537,2.096-0.639
					c0.265-1.176-0.242-2.796-1.133-3.619C128.588,120.338,127.65,120.624,127.385,121.799z"/>
				<path fill="#FFC536" d="M127.982,122.352c-0.167,0.74,0.152,1.759,0.713,2.277c0.56,0.518,1.15,0.337,1.316-0.402
					c0.168-0.74-0.151-1.759-0.712-2.276S128.15,121.613,127.982,122.352z"/>
				<path fill="#3B4549" d="M152.377,134.856l0.867-0.28c0.01-0.003,0.02-0.006,0.031-0.01l0.045-0.015l0.006,0.007
					c0.364-0.087,0.795,0.041,1.22,0.423c0.901,0.811,1.43,2.424,1.181,3.604c-0.123,0.582-0.414,0.946-0.784,1.072v0.002
					l-0.013,0.004l-0.004,0.001l-0.863,0.281l-0.168-0.505c-0.084-0.057-0.169-0.113-0.254-0.189
					c-0.901-0.811-1.43-2.424-1.18-3.604c0.021-0.103,0.055-0.19,0.086-0.279L152.377,134.856z"/>
				<path fill="#5C6467" d="M151.568,135.939c-0.25,1.179,0.278,2.792,1.18,3.604c0.902,0.811,1.836,0.512,2.086-0.667
					c0.25-1.179-0.279-2.792-1.181-3.604S151.818,134.76,151.568,135.939z"/>
				<path fill="#FFC536" d="M152.174,136.484c-0.157,0.742,0.175,1.757,0.742,2.267s1.154,0.323,1.313-0.419
					c0.156-0.741-0.176-1.756-0.742-2.267C152.918,135.555,152.331,135.743,152.174,136.484z"/>
			</g>
			<path fill="#3B4549" d="M123.59,188.864c0,4.231-2.988,9.388-6.676,11.517s-6.678,0.425-6.678-3.807s2.99-9.388,6.678-11.517
				S123.59,184.632,123.59,188.864z"/>
			<polygon fill="#3B4549" points="121.395,184.453 124.543,186.256 114.896,202.415 111.84,200.625 114.471,189.666 			"/>
			<g>
				<path fill="#5C6467" d="M126.444,190.511c0,4.231-2.989,9.388-6.677,11.517s-6.677,0.425-6.677-3.807s2.989-9.388,6.677-11.517
					S126.444,186.281,126.444,190.511z"/>
				<path fill="#FFC536" d="M123.967,191.942c0,2.661-1.88,5.904-4.199,7.244c-2.32,1.339-4.2,0.267-4.2-2.395
					c0-2.662,1.88-5.905,4.2-7.244C122.087,188.208,123.967,189.28,123.967,191.942z"/>
				<polygon fill="#FFF98B" points="109.627,204.626 120.703,193.73 119.768,193.19 109.627,195.815 				"/>
			</g>
			<g>
				<polygon fill="#FFE25B" points="110.564,205.167 120.703,196.083 120.703,193.73 110.564,196.355 				"/>
				<polygon fill="#FFC536" points="77.009,206.358 102.641,221.157 102.641,222.483 77.009,207.684 				"/>
				<g>
					<path fill="#FFC536" d="M110.582,204.287l6.943-67.939c0.467-5.458,1.699-6.752,3.674-8.237
						c1.688-1.478,4.066-2.546,5.752-3.069l2.253-0.701l-0.57-1.83l-2.253,0.701c-0.908,0.282-4.054,1.361-6.392,3.413
						c-2.556,1.921-3.888,3.857-4.372,9.545l-6.941,67.923L110.582,204.287z"/>
				</g>
			</g>
			<path fill="#DD9A36" d="M111.953,178.814c-0.068-0.045-0.113-0.132-0.113-0.257c0-0.261,0.185-0.58,0.412-0.711
				c0.111-0.064,0.211-0.07,0.284-0.031l0.001-0.002l0.006,0.003l0.002,0.001l25.797,14.889l-0.535,1.024l-25.844-14.907
				l-0.003-0.002l-0.009-0.004L111.953,178.814z"/>
			<path fill="#DD9A36" d="M115.005,153.441c-0.069-0.045-0.113-0.131-0.113-0.256c0-0.262,0.185-0.58,0.413-0.712
				c0.11-0.063,0.209-0.069,0.284-0.031l0.001-0.002l0.006,0.003l0.002,0.001l25.796,14.888l-0.535,1.024l-25.845-14.907
				l-0.001-0.001l-0.009-0.005L115.005,153.441z"/>
			<path fill="#DD9A36" d="M119.282,194.848c-0.117-0.076-0.192-0.224-0.192-0.437c0-0.445,0.314-0.988,0.703-1.212
				c0.188-0.109,0.357-0.119,0.482-0.054l0.002-0.003l0.01,0.005l0.004,0.002l23.375,13.498l-0.911,1.746l-23.457-13.53
				l-0.003-0.003l-0.016-0.008L119.282,194.848z"/>
			<polygon fill="#FFF98B" points="134.324,218.885 144.465,209.802 144.465,207.448 134.324,210.073 			"/>
			<polygon fill="#FFE25B" points="102.641,221.157 135.26,218.1 109.627,203.301 77.009,206.358 			"/>
			<polygon fill="#DD9A36" points="136.07,210.568 135.26,218.1 109.627,203.301 110.438,195.769 			"/>
			<g>
				<polygon fill="#FFE25B" points="135.26,219.426 145.4,210.342 145.4,207.989 135.26,210.614 				"/>
				<polygon fill="#FFC536" points="102.641,221.157 135.26,218.1 135.26,219.426 102.641,222.483 				"/>
				<g>
					<path fill="#FFC536" d="M136.213,219.085l6.945-67.94l0.34-2.379c0.544-3.938,0.674-4.874,2.158-6.34
						c1.002-1.358,2.959-2.496,5.76-3.405l2.245-0.731l-0.593-1.824l-2.244,0.731c-3.234,1.051-5.461,2.392-6.618,3.983
						c-1.843,1.807-2.036,3.197-2.608,7.324l-0.341,2.405l-6.949,67.981L136.213,219.085z"/>
				</g>
			</g>
			<path fill="#3B4549" d="M152.076,205.349c0,4.231-2.988,9.387-6.676,11.516s-6.677,0.425-6.677-3.807s2.989-9.387,6.677-11.516
				S152.076,201.118,152.076,205.349z"/>
			<polygon fill="#3B4549" points="140.51,217.242 143.521,218.988 146.777,211.985 153.215,202.859 150,200.996 			"/>
			<path fill="#5C6467" d="M154.931,206.997c0,4.231-2.989,9.387-6.677,11.516s-6.676,0.425-6.676-3.807
				c0-4.23,2.988-9.387,6.676-11.516S154.931,202.765,154.931,206.997z"/>
			<path fill="#FFC536" d="M152.454,208.426c0,2.662-1.881,5.905-4.2,7.244c-2.319,1.34-4.199,0.268-4.199-2.395
				c0-2.661,1.88-5.905,4.199-7.244S152.454,205.764,152.454,208.426z"/>
			<path fill="#5C6467" d="M149.279,210.259c0,0.649-0.459,1.441-1.025,1.769s-1.025,0.065-1.025-0.584
				c0-0.65,0.459-1.442,1.025-1.77S149.279,209.609,149.279,210.259z"/>
		</g>
		<g>
			<g>
				<polygon fill="#C99A6B" points="107.648,219.708 85.33,206.823 87.527,182.756 109.845,195.641 				"/>
				<polygon fill="#AE835B" points="107.648,219.708 132.221,217.372 134.417,193.304 109.845,195.641 				"/>
				<polygon fill="#87623F" points="109.845,195.641 134.417,193.304 112.1,180.419 87.527,182.756 				"/>
				<polygon fill="#D9AF84" points="98.662,201.288 94.076,198.64 95.509,187.365 100.094,190.012 				"/>
				<polygon fill="#EBCBAB" points="100.094,190.012 124.667,187.675 120.081,185.028 95.509,187.365 				"/>
				<polygon fill="#D1A986" points="97.972,188.787 122.545,186.45 122.286,186.3 97.714,188.638 				"/>
				<polygon fill="#87623F" points="134.417,193.304 109.845,195.641 119.704,195.428 				"/>
			</g>
			<g>
				<polygon fill="#C99A6B" points="109.901,195.069 87.584,182.183 89.779,158.117 112.098,171.001 				"/>
				<polygon fill="#AE835B" points="109.901,195.069 134.474,192.731 136.67,168.665 112.098,171.001 				"/>
				<polygon fill="#E8B687" points="112.098,171.001 136.67,168.665 114.353,155.78 89.779,158.117 				"/>
				<polygon fill="#D9AF84" points="100.915,176.648 96.329,174 97.762,162.725 102.348,165.373 				"/>
				<polygon fill="#EBCBAB" points="102.348,165.373 126.921,163.036 122.335,160.387 97.762,162.725 				"/>
				<polygon fill="#D1A986" points="100.225,164.147 124.797,161.81 124.539,161.661 99.967,163.999 				"/>
				<polygon fill="#87623F" points="136.67,168.665 112.098,171.001 121.958,170.789 				"/>
			</g>
		</g>
		<g>
			<path fill="#FFDC6E" d="M177.967,98.821c-1.708,0.243-3.973,0.613-3.973,0.613s-1.472-5.95-1.361-9.29
				c0.109-3.34-0.045-9.254,4.366-11.226c4.411-1.972,5.88,4.765,6.03,6.06c0.148,1.295,0.899,12.751,0.899,12.751
				S181.75,98.282,177.967,98.821z"/>
		</g>
		<path fill="#FEC7C6" d="M134.226,125.422c0,0,0.786-0.585,0.381-1.141s-1.026-1.567-1.026-1.567l0.068-1.862
			c0,0,1.722-0.395,2.027-1.816s-0.906-2.996-1.691-2.807s-3.121,3.446-3.244,3.67c-0.123,0.224,0.975,3.302,0.975,3.302
			s0.897,1.438,1.106,1.671C133.03,125.104,133.568,125.877,134.226,125.422z"/>
		<path fill="#FECB4C" d="M152.093,52.593l0.442,0.575c0,0,8.098,2.368,8.916,2.588c0.354,0.088,0.951,0.333,1.793,0.598
			c1.129,0.399,2.721,0.819,4.846,0.996c3.673,0.31,3.673,0.31,3.673,0.31s1.173-3.54,0.619-6.77
			c-0.42-2.456-3.187-4.625-6.46-5.687c-0.023-0.022-0.045-0.022-0.045-0.022c-1.018-0.333-2.08-0.575-3.119-0.686
			c-4.47-0.465-7.523,1.417-8.961,3.584C152.381,50.249,152.093,52.593,152.093,52.593z"/>
		<path fill="#FCF5E8" d="M163.244,56.354c1.129,0.399,2.721,0.819,4.846,0.996c3.673,0.31,3.673,0.31,3.673,0.31
			s1.173-3.54,0.619-6.77c-0.42-2.456-3.187-4.625-6.46-5.687c0.354,0.177,3.273,1.637,3.252,4.403
			C169.129,52.395,167.403,55.735,163.244,56.354z"/>
		<path fill="#725E6D" d="M163.353,56.408c0,0-6.452,5.55-8.671,3.313c-1.564-1.576-5.446-3.081-7.152-2.574
			c-1.705,0.507-1.705,0.507-1.705,0.507s-0.361-0.073-0.315-0.488s6.591-4.563,6.591-4.563S154.692,49.842,163.353,56.408z"/>
		<g>
			<g>
				<path fill="#87623F" d="M110.618,197.291l0.015-0.168l6.182-0.625l-0.574,6.795l-0.016,0.168l-6.18,0.625L110.618,197.291z
					 M116.369,196.951l-5.359,0.542l-0.52,6.139l5.359-0.541L116.369,196.951z"/>
			</g>
			<g>
				<polygon fill="#87623F" points="112.627,202.762 113.989,202.614 114.209,199.178 112.848,199.327 				"/>
				<polygon fill="#87623F" points="111.556,200.788 115.453,200.342 113.508,197.821 				"/>
			</g>
		</g>
		<g>
			<g>
				<path fill="#87623F" d="M112.978,172.767l0.015-0.167l6.18-0.624l-0.572,6.794l-0.016,0.167l-6.18,0.626L112.978,172.767z
					 M118.727,172.429l-5.357,0.54l-0.52,6.14l5.359-0.541L118.727,172.429z"/>
			</g>
			<g>
				<polygon fill="#87623F" points="114.986,178.24 116.349,178.091 116.568,174.656 115.207,174.805 				"/>
				<polygon fill="#87623F" points="113.914,176.265 117.813,175.82 115.867,173.298 				"/>
			</g>
		</g>
	</g>
	<g>
		<path fill="#BECDD4" d="M94.572,139.415"/>
	</g>
</g>
</svg>
